HIERARCHY
ROOT ui
{
	 OFFSET 0 0 0
	 CHANNELS 3 XPosition YPosition Z Position
	 EndSite
	 {
	 OFFSET 0 -1 0
	 }
}
ROOT li
{
	 OFFSET 0 0 0
	 CHANNELS 3 XPosition YPosition Z Position
	 EndSite
	 {
	 OFFSET 0 -1 0
	 }
}
ROOT ul
{
	 OFFSET 0 0 0
	 CHANNELS 3 XPosition YPosition Z Position
	 EndSite
	 {
	 OFFSET 0 -1 0
	 }
}
ROOT ll
{
	 OFFSET 0 0 0
	 CHANNELS 3 XPosition YPosition Z Position
	 EndSite
	 {
	 OFFSET 0 -1 0
	 }
}
ROOT tt
{
	 OFFSET 0 0 0
	 CHANNELS 3 XPosition YPosition Z Position
	 EndSite
	 {
	 OFFSET 0 -1 0
	 }
}
ROOT tb
{
	 OFFSET 0 0 0
	 CHANNELS 3 XPosition YPosition Z Position
	 EndSite
	 {
	 OFFSET 0 -1 0
	 }
}
ROOT td
{
	 OFFSET 0 0 0
	 CHANNELS 3 XPosition YPosition Z Position
	 EndSite
	 {
	 OFFSET 0 -1 0
	 }
}
ROOT v
{
	 OFFSET 0 0 0
	 CHANNELS 3 XPosition YPosition Z Position
	 EndSite
	 {
	 OFFSET 0 -1 0
	 }
}
ROOT bn
{
	 OFFSET 0 0 0
	 CHANNELS 3 XPosition YPosition Z Position
	 EndSite
	 {
	 OFFSET 0 -1 0
	 }
}
MOTION
Frames: 19
Frame Time: 0.002
0.0011613579988479614	0.0017101449966430665	0		0.45096359252929685	-2.3913271484375	0		-1.095210205078125	0.12808787536621094	0		-0.7028032836914062	-2.497684814453125	0		1.4153492431640624	-0.61214453125	0		2.922143798828125	0.14022511291503906	0		4.5269287109375	0.2421558074951172	0		5.6476279296875	0.31426852416992185	0		-0.26170462036132813	5.98038427734375	0		
-0.01938960075378418	0.004684593200683594	0		0.3947953796386719	-2.371524169921875	0		-1.1568197021484374	0.12900933837890624	0		-0.7061011352539063	-2.484107177734375	0		1.4188157958984375	-0.6087232055664062	0		2.93902783203125	0.11833159637451172	0		4.53727685546875	0.24042092895507813	0		5.65159228515625	0.3270354919433594	0		-0.26033892822265625	5.9798505859375	0		
0.006955726146697998	0.0035921480655670165	0		0.44595196533203124	-2.381191650390625	0		-1.0924847412109375	0.12703720092773438	0		-0.7067918090820312	-2.486575927734375	0		1.41807666015625	-0.6131887817382813	0		2.948816650390625	0.1366305694580078	0		4.5255166015625	0.23521363830566405	0		5.647779296875	0.34892083740234375	0		-0.258994140625	5.97933544921875	0		
-0.019792835235595704	7.471759915351867E-4	0		0.4290874938964844	-2.38926611328125	0		-1.0911715087890625	0.12654319763183594	0		-0.7095443725585937	-2.48997607421875	0		1.4383624267578126	-0.6151192016601562	0		2.931019287109375	0.13158099365234374	0		4.5226689453125	0.22781944274902344	0		5.64641259765625	0.33090206909179687	0		-0.2729137878417969	5.96919189453125	0		
0.0064598569869995116	-2.996779978275299E-4	0		0.444437255859375	-2.3860595703125	0		-1.0899122314453125	0.12607338714599609	0		-0.7190953979492187	-2.482193603515625	0		1.417581787109375	-0.6170782470703124	0		2.932278564453125	0.131114013671875	0		4.5280888671875	0.23425926208496095	0		5.65140771484375	0.31083261108398436	0		-0.25643148803710936	5.978373046875	0		
-0.017341650009155274	-1.6513599455356598E-4	0		0.4066174011230469	-2.386600830078125	0		-1.1129451904296874	0.11618702697753906	0		-0.7050677490234375	-2.489935791015625	0		1.4218424072265625	-0.6145910034179688	0		2.951373046875	0.12625706481933593	0		4.52723486328125	0.23186468505859376	0		5.65524169921875	0.32374627685546875	0		-0.2390615997314453	5.98555810546875	0		
-0.006000866889953613	0.009185312271118164	0		0.47352752685546873	-2.396539794921875	0		-1.0635914306640626	0.12565882873535156	0		-0.720927490234375	-2.488958984375	0		1.4250467529296875	-0.6110538940429687	0		2.93697509765625	0.14720585632324218	0		4.5345302734375	0.23930870056152342	0		5.65833935546875	0.34020367431640625	0		-0.25413066101074216	5.97751416015625	0		
-0.012137729644775391	0.0019617919921875	0		0.4518565673828125	-2.38339892578125	0		-1.0824937744140626	0.1287333526611328	0		-0.6669653930664062	-2.4925703125	0		1.423977783203125	-0.6153941040039063	0		2.940442626953125	0.12275503540039062	0		4.531416015625	0.23301446533203124	0		5.64968359375	0.3279444885253906	0		-0.2540827484130859	5.97814990234375	0		
-0.011211306571960448	0.0016033309698104859	0		0.4584791564941406	-2.39689306640625	0		-1.0856585693359375	0.12446920013427734	0		-0.7020081176757812	-2.4910966796875	0		1.4249036865234375	-0.615753662109375	0		2.941369140625	0.12239438629150391	0		4.528181640625	0.2257469482421875	0		5.6526484375	0.3444926147460938	0		-0.26740240478515626	5.9671181640625	0		
-0.010386184692382812	0.001272812008857727	0		0.45930108642578127	-2.39722412109375	0		-1.0138753662109374	0.12149930572509765	0		-0.6693104248046875	-2.49716455078125	0		1.422659423828125	-0.6190159301757813	0		2.942194580078125	0.12205994415283203	0		4.52317041015625	0.23254721069335937	0		5.6509326171875	0.32673251342773435	0		-0.25134222412109375	5.9764384765625	0		
-0.012732829093933105	-0.0019608500003814697	0		0.46206399536132814	-2.39557568359375	0		-1.11291845703125	0.13250662231445312	0		-0.7323451538085938	-2.485990234375	0		1.42644873046875	-0.6163927001953124	0		2.933242919921875	0.13597776794433594	0		4.53802783203125	0.2379093017578125	0		5.65852880859375	0.3205993957519531	0		-0.25060861206054685	5.97613525390625	0		
-0.009044713973999023	6.90526008605957E-4	0		0.4647230224609375	-2.393902099609375	0		-1.076331298828125	0.13039903259277344	0		-0.6957647705078125	-2.488098876953125	0		1.427066650390625	-0.6166749267578125	0		2.95248779296875	0.11925665283203125	0		4.52865087890625	0.23785015869140624	0		5.650759765625	0.3568925476074219	0		-0.2509501037597656	5.97688037109375	0		
-0.008523859977722169	4.3604299426078794E-4	0		0.46319036865234375	-2.396111328125	0		-1.11177734375	0.13198013305664064	0		-0.6952520751953125	-2.48835107421875	0		1.4275855712890626	-0.61693408203125	0		2.9614462890625	0.13780247497558593	0		4.5350322265625	0.23144377136230468	0		5.65456494140625	0.3423843994140625	0		-0.25040977478027343	5.97662646484375	0		
-0.008095637321472168	2.0421800017356872E-4	0		0.4517743225097656	-2.3890693359375	0		-1.0074920043945312	0.12434890747070312	0		-0.7097139282226562	-2.483234619140625	0		1.4249427490234374	-0.620101318359375	0		2.924653564453125	0.1284173583984375	0		4.53546142578125	0.23119419860839843	0		5.64846923828125	0.3440350341796875	0		-0.2642088623046875	5.96572216796875	0		
-0.01082030200958252	-0.0029361119270324707	0		0.41104904174804685	-2.3913330078125	0		-1.1181640625	0.12471085357666016	0		-0.7006149291992188	-2.4936474609375	0		1.422192138671875	-0.6242478637695312	0		2.954967041015625	0.1264999771118164	0		4.53580615234375	0.2309631805419922	0		5.65511572265625	0.34153744506835937	0		-0.2495873260498047	5.97618603515625	0		
0.017511388778686524	-7.751169800758362E-4	0		0.46215435791015624	-2.39870361328125	0		-1.074766357421875	0.1295295867919922	0		-0.6854773559570313	-2.49918017578125	0		1.425550537109375	-0.6205159301757812	0		2.958167236328125	0.12322603607177735	0		4.53021728515625	0.2368870849609375	0		5.66648583984375	0.3163052673339844	0		-0.23213006591796875	5.9826015625	0		
-0.0031839818954467773	0.0035383050441741945	0		0.4166376953125	-2.38581640625	0		-1.0896014404296874	0.1277117385864258	0		-0.690958984375	-2.485212646484375	0		1.430914306640625	-0.6138126831054688	0		2.957860595703125	0.14405604553222656	0		4.54042236328125	0.2364595947265625	0		5.6625361328125	0.33522088623046875	0		-0.24807180786132813	5.97480419921875	0		
0.024007965087890625	0.004759583950042725	0		0.4645323181152344	-2.397080322265625	0		-0.9993562622070312	0.1304803466796875	0		-0.6939124145507812	-2.48929150390625	0		1.428971435546875	-0.6179269409179687	0		2.9004970703125	0.1222110137939453	0		4.53643896484375	0.2303740234375	0		5.65556396484375	0.34048809814453124	0		-0.26311148071289064	5.965001953125	0		
-0.007015582084655762	-6.57912015914917E-4	0		0.4117313232421875	-2.391993896484375	0		-1.0742977294921876	0.1290870819091797	0		-0.6958665161132812	-2.491376953125	0		1.4198455810546875	-0.6278613891601562	0		2.94556982421875	0.12001480102539062	0		4.52857275390625	0.23139422607421875	0		5.65564013671875	0.3401916809082031	0		-0.24871664428710938	5.9755400390625	0		
